<svg xmlns="http://www.w3.org/2000/svg" xmlns:xlink="http://www.w3.org/1999/xlink" width="228" height="63.411" viewBox="0 0 228 63.411"><defs><style>.a,.c{fill:#f9f9fc;}.b{clip-path:url(#a);}.c{font-size:44px;font-family:ErasITC-Light, Eras ITC;font-weight:300;}</style><clipPath id="a"><rect class="a" width="228" height="63.411"/></clipPath></defs><g transform="translate(0 4.45)"><g class="b" transform="translate(0 -4.45)"><text class="c" transform="translate(47.031 47.927)"><tspan x="0" y="0">EazyLabz</tspan></text><path class="a" d="M35.987,16.585A18.023,18.023,0,0,0,0,17.776a18.33,18.33,0,0,0,2.246,8.583A26.612,26.612,0,0,1,5.681,39.122v.349a5.019,5.019,0,0,0,5.052,4.986H25.293a5.019,5.019,0,0,0,5.052-4.986V38.117a22.732,22.732,0,0,1,3.242-11.408,18.154,18.154,0,0,0,2.4-10.124" transform="translate(0 0)"/><path class="a" d="M29.017,53.66H9.278a.865.865,0,0,0,0,1.73H29.017a.865.865,0,1,0,0-1.73" transform="translate(-1.136 -7.244)"/><path class="a" d="M28.495,58.321H9.995a.865.865,0,1,0,0,1.73h18.5a.865.865,0,0,0,0-1.73" transform="translate(-1.233 -7.873)"/><path class="a" d="M27.838,62.6H10.895a.865.865,0,0,0,0,1.73H27.838a.865.865,0,0,0,0-1.73" transform="translate(-1.354 -8.451)"/><path class="a" d="M19.652,71.277a7.823,7.823,0,0,0,7.506-4.7H12.146a7.824,7.824,0,0,0,7.506,4.7" transform="translate(-1.64 -8.988)"/></g></g></svg>